# xmcd CD database file
#
# Track frame offsets:
#	150
#	9865
#	46381
#	58301
#	71178
#	84481
#	124199
#	140736
#	156952
#	171474
#
# Disc length: 3441 seconds
#
# Revision: 0
# Processed by: cddbd v1.5.2PL0 Copyright (c) Steve Scherf et al.
# Submitted via: CDex 1.50Beta3
#
DISCID=910d6f0a
DTITLE=Charles Mingus - Mysterious Blues [CD7]
DYEAR=1900
DGENRE=Jazz
TTITLE0=Sure Thing
TTITLE1=What is This Thing Called Love
TTITLE2=What's This
TTITLE3=Boppin' in Boston
TTITLE4=Bottoms up
TTITLE5=Four Hands
TTITLE6=Jay
TTITLE7=Old Folks
TTITLE8=Portrait (Take 1)
TTITLE9=M D M
EXTD=
EXTT0=
EXTT1=
EXTT2=
EXTT3=
EXTT4=
EXTT5=
EXTT6=
EXTT7=
EXTT8=
EXTT9=
PLAYORDER=
